<svg width="375" height="108" viewBox="0 0 375 108" fill="none" xmlns="http://www.w3.org/2000/svg">
<rect width="375" height="108" fill="white"/>
<g clip-path="url(#clip0)">
<rect width="139" height="71" transform="translate(216 18)" fill="white"/>
<ellipse cx="286.5" cy="53" rx="55.5" ry="28" fill="#32C0FF"/>
<path d="M268.39 41.056V40.192H262.63L257.446 53.728L252.118 40.192H246.262V41.056L248.782 41.368L248.686 56.872L246.142 57.16V58H252.382V57.16L249.862 56.872V49.216C249.862 48.208 249.814 45.016 249.742 42.616L255.766 58H256.942L262.798 42.52L262.75 50.08C262.702 52.168 262.75 54.568 262.678 56.944L260.47 57.16V58H268.39V57.16L266.086 56.944C266.062 54.544 266.062 52.12 266.062 49.696V48.52C266.062 46.12 266.062 43.696 266.086 41.272L268.39 41.056ZM273.062 50.632C273.206 47.128 274.526 45.664 276.038 45.664C277.502 45.664 278.534 46.912 278.534 48.856C278.534 50.08 278.27 50.632 277.166 50.632H273.062ZM281.366 51.52C281.486 51.112 281.534 50.656 281.534 50.032C281.534 47.008 279.542 44.776 276.254 44.776C272.894 44.776 269.726 47.248 269.726 51.568C269.726 55.936 272.462 58.384 276.23 58.384C278.606 58.384 280.43 57.256 281.39 55.288L280.91 54.952C280.07 56.08 279.038 56.8 277.31 56.8C274.982 56.8 273.158 55.192 273.062 51.52H281.366ZM296.588 57.064C296.564 55.696 296.54 53.728 296.54 52.36V49.432C296.54 46.216 295.124 44.776 292.868 44.776C291.308 44.776 289.82 45.448 288.308 47.2L288.14 45.016L287.804 44.8L283.196 46.264V46.864L285.092 47.056C285.164 48.208 285.188 49.072 285.188 50.632V52.36C285.188 53.68 285.164 55.672 285.14 57.04L283.388 57.256V58H289.964V57.256L288.404 57.064C288.38 55.696 288.356 53.68 288.356 52.36V48.04C289.532 46.96 290.612 46.48 291.5 46.48C292.796 46.48 293.396 47.2 293.396 49.288V52.36C293.396 53.728 293.372 55.696 293.324 57.04L291.644 57.256V58H298.22V57.256L296.588 57.064ZM312.494 57.112V49.024L312.566 45.184L312.302 44.92L307.67 45.592V46.216L309.374 46.528L309.326 55.072C308.438 55.96 307.43 56.488 306.35 56.488C305.03 56.488 304.286 55.792 304.286 53.68V49.024L304.43 45.184L304.166 44.92L299.414 45.544V46.216L301.214 46.552L301.118 53.512C301.07 57.112 302.51 58.384 304.814 58.384C306.59 58.384 308.198 57.328 309.35 55.864L309.518 58.264L314.126 58V57.28L312.494 57.112ZM319.14 50.632C319.284 47.128 320.604 45.664 322.116 45.664C323.58 45.664 324.612 46.912 324.612 48.856C324.612 50.08 324.348 50.632 323.244 50.632H319.14ZM327.444 51.52C327.564 51.112 327.612 50.656 327.612 50.032C327.612 47.008 325.62 44.776 322.332 44.776C318.972 44.776 315.804 47.248 315.804 51.568C315.804 55.936 318.54 58.384 322.308 58.384C324.684 58.384 326.508 57.256 327.468 55.288L326.988 54.952C326.148 56.08 325.116 56.8 323.388 56.8C321.06 56.8 319.236 55.192 319.14 51.52H327.444Z" fill="white"/>
<path d="M213.531 62.4392L243.566 44.8286L247.95 67.6861L213.531 62.4392Z" fill="#32C0FF"/>
</g>
<path d="M110.076 67.064C110.052 65.696 110.028 63.728 110.028 62.36V59.432C110.028 56.216 108.612 54.776 106.356 54.776C104.796 54.776 103.308 55.448 101.796 57.2L101.628 55.016L101.292 54.8L96.6843 56.264V56.864L98.5803 57.056C98.6523 58.208 98.6763 59.072 98.6763 60.632V62.36C98.6763 63.68 98.6523 65.672 98.6283 67.04L96.8763 67.256V68H103.452V67.256L101.892 67.064C101.868 65.696 101.844 63.68 101.844 62.36V58.04C103.02 56.96 104.1 56.48 104.988 56.48C106.284 56.48 106.884 57.2 106.884 59.288V62.36C106.884 63.728 106.86 65.696 106.812 67.04L105.132 67.256V68H111.708V67.256L110.076 67.064ZM120.726 65.552C119.622 66.464 119.022 66.824 118.23 66.824C117.078 66.824 116.31 66.152 116.31 64.736C116.31 63.248 117.03 62.144 118.926 61.4C119.334 61.232 120.006 61.04 120.726 60.824V65.552ZM125.742 66.344C125.31 66.92 125.022 67.136 124.662 67.136C124.134 67.136 123.798 66.776 123.798 65.696V59.504C123.798 56.144 122.478 54.776 119.334 54.776C115.998 54.776 114.006 56.12 113.694 58.28C113.838 59 114.342 59.384 115.134 59.384C115.95 59.384 116.598 58.856 116.694 57.536L117.03 55.808C117.462 55.712 117.87 55.664 118.278 55.664C120.078 55.664 120.726 56.36 120.726 58.904V60.128C119.79 60.344 118.83 60.608 118.11 60.848C114.414 62 113.31 63.176 113.31 65.168C113.31 67.184 114.774 68.384 116.79 68.384C118.566 68.384 119.502 67.64 120.822 66.248C121.134 67.544 121.974 68.36 123.438 68.36C124.71 68.36 125.55 67.904 126.174 66.704L125.742 66.344ZM132.463 59.912C130.615 59.312 130.087 58.664 130.087 57.656C130.087 56.48 130.999 55.712 132.583 55.712C133.279 55.712 133.831 55.856 134.407 56.144L135.151 58.736H136.375L136.543 55.856C135.223 55.16 134.047 54.776 132.511 54.776C129.223 54.776 127.423 56.552 127.423 58.856C127.423 60.8 128.695 61.952 130.759 62.6L132.079 63.032C133.951 63.656 134.503 64.328 134.503 65.384C134.503 66.704 133.495 67.448 131.575 67.448C130.783 67.448 130.111 67.328 129.487 67.064L128.815 64.16H127.423L127.327 67.28C128.695 68 130.039 68.384 131.767 68.384C135.295 68.384 137.263 66.704 137.263 64.256C137.263 62.408 136.231 61.136 133.711 60.296L132.463 59.912ZM146.531 65.552C145.427 66.464 144.827 66.824 144.035 66.824C142.883 66.824 142.115 66.152 142.115 64.736C142.115 63.248 142.835 62.144 144.731 61.4C145.139 61.232 145.811 61.04 146.531 60.824V65.552ZM151.547 66.344C151.115 66.92 150.827 67.136 150.467 67.136C149.939 67.136 149.603 66.776 149.603 65.696V59.504C149.603 56.144 148.283 54.776 145.139 54.776C141.803 54.776 139.811 56.12 139.499 58.28C139.643 59 140.147 59.384 140.939 59.384C141.755 59.384 142.403 58.856 142.499 57.536L142.835 55.808C143.267 55.712 143.675 55.664 144.083 55.664C145.883 55.664 146.531 56.36 146.531 58.904V60.128C145.595 60.344 144.635 60.608 143.915 60.848C140.219 62 139.115 63.176 139.115 65.168C139.115 67.184 140.579 68.384 142.595 68.384C144.371 68.384 145.307 67.64 146.627 66.248C146.939 67.544 147.779 68.36 149.243 68.36C150.515 68.36 151.355 67.904 151.979 66.704L151.547 66.344ZM156.059 68.384C157.163 68.384 158.027 67.472 158.027 66.416C158.027 65.312 157.163 64.4 156.059 64.4C154.931 64.4 154.067 65.312 154.067 66.416C154.067 67.472 154.931 68.384 156.059 68.384ZM181.954 67.064C181.93 65.696 181.906 63.728 181.906 62.36V59.48C181.906 56.24 180.682 54.776 178.21 54.776C176.626 54.776 175.186 55.448 173.65 57.272C173.17 55.568 172.042 54.776 170.314 54.776C168.682 54.776 167.266 55.568 165.874 57.176L165.706 55.016L165.37 54.8L160.762 56.264V56.864L162.658 57.056C162.754 58.184 162.754 59.048 162.754 60.632V62.36C162.754 63.68 162.73 65.672 162.706 67.04L160.954 67.256V68H167.53V67.256L165.97 67.064C165.946 65.696 165.922 63.68 165.922 62.36V58.112C166.954 57.104 167.986 56.504 168.946 56.504C170.218 56.504 170.818 57.272 170.818 59.456V62.36C170.818 63.728 170.794 65.672 170.77 67.04L169.042 67.256V68H175.546V67.256L173.986 67.064C173.938 65.696 173.914 63.728 173.914 62.36V59.432C173.914 58.952 173.89 58.496 173.818 58.088C174.922 57.008 175.93 56.504 176.938 56.504C178.186 56.504 178.81 57.176 178.81 59.432V62.36C178.81 63.728 178.786 65.672 178.762 67.04L177.106 67.256V68H183.586V67.256L181.954 67.064ZM188.574 60.632C188.718 57.128 190.038 55.664 191.55 55.664C193.014 55.664 194.046 56.912 194.046 58.856C194.046 60.08 193.782 60.632 192.678 60.632H188.574ZM196.878 61.52C196.998 61.112 197.046 60.656 197.046 60.032C197.046 57.008 195.054 54.776 191.766 54.776C188.406 54.776 185.238 57.248 185.238 61.568C185.238 65.936 187.974 68.384 191.742 68.384C194.118 68.384 195.942 67.256 196.902 65.288L196.422 64.952C195.582 66.08 194.55 66.8 192.822 66.8C190.494 66.8 188.67 65.192 188.574 61.52H196.878Z" fill="#32C2FF"/>
<defs>
<clipPath id="clip0">
<rect width="139" height="71" fill="white" transform="translate(216 18)"/>
</clipPath>
</defs>
</svg>
